<?xml version="1.0" encoding="utf-8"?>
<!-- Generator: Adobe Illustrator 25.2.0, SVG Export Plug-In . SVG Version: 6.00 Build 0)  -->
<svg version="1.1" id="Calque_1" xmlns="http://www.w3.org/2000/svg" xmlns:xlink="http://www.w3.org/1999/xlink" x="0px" y="0px"
	 viewBox="0 0 20 20" style="enable-background:new 0 0 20 20;" xml:space="preserve">
<style type="text/css">
	.st0{fill:#DB7118;}
</style>
<path class="st0" d="M7.4,4c0.8,0,1.5,0.3,2.1,0.7C9.7,4.9,9.8,5.1,10,5.3c0.4,0.6,0.7,1.3,0.7,2.1v0c0,1,0.9,1.9,1.9,1.9
	c1.1,0,1.9-0.9,1.9-1.9c0-1.1-0.9-1.9-1.9-1.9c-0.8,0-1.5-0.3-2.1-0.7c-0.2-0.2-0.4-0.4-0.6-0.6C9.6,3.6,9.3,2.9,9.3,2.1v0
	c0-1-0.9-1.9-1.9-1.9c-1.1,0-1.9,0.9-1.9,1.9S6.3,4,7.4,4"/>
<path class="st0" d="M17.9,16c-0.8,0-1.5-0.3-2.1-0.7c-0.2-0.2-0.4-0.3-0.6-0.6c-0.4-0.5-0.7-1.2-0.7-2c0-0.9,0.3-1.6,0.7-2.1
	c0.2-0.2,0.3-0.4,0.6-0.6c0.6-0.4,1.3-0.7,2.1-0.7h0c1,0,1.9-0.9,1.9-1.9c0-0.1,0-0.1,0-0.2c-0.1-1-0.9-1.7-1.9-1.7
	c-0.8,0-1.5-0.3-2.1-0.7c-0.2-0.2-0.4-0.3-0.6-0.6c-0.4-0.6-0.7-1.3-0.7-2.1c0,0,0,0,0,0c0-1-0.9-1.9-1.9-1.9
	c-1.1,0-1.9,0.9-1.9,1.9S11.6,4,12.6,4c0.8,0,1.5,0.3,2.1,0.7c0.2,0.2,0.4,0.4,0.6,0.6C15.7,5.9,16,6.6,16,7.4c0,0,0,0,0,0
	c0,0,0,0,0,0c0,0.8-0.3,1.5-0.7,2.1c-0.2,0.2-0.4,0.4-0.6,0.6c-0.6,0.4-1.3,0.7-2.1,0.7h0c-0.3,0-0.7,0.1-0.9,0.2
	c-0.6,0.3-1,1-1,1.7c0,0.8-0.3,1.5-0.7,2.1c-0.2,0.2-0.3,0.4-0.6,0.6C8.9,15.7,8.1,16,7.4,16c-0.8,0-1.5-0.3-2.1-0.7
	c-0.2-0.2-0.4-0.3-0.6-0.6C4.3,14.2,4,13.5,4,12.7c0,0,0,0,0,0c0,0,0,0,0,0c0-0.8,0.3-1.5,0.7-2.1c0.2-0.2,0.3-0.4,0.6-0.6
	c0.6-0.4,1.3-0.7,2.1-0.7h0c1,0,1.9-0.9,1.9-1.9c0-1.1-0.9-1.9-1.9-1.9c-1.1,0-1.9,0.9-1.9,1.9c0,0.8-0.3,1.5-0.7,2.1
	C4.6,9.7,4.4,9.9,4.2,10c-0.6,0.4-1.3,0.7-2.1,0.7h0c-1,0-1.9,0.9-1.9,1.9c0,0.2,0,0.4,0.1,0.6c0.2,0.8,1,1.3,1.8,1.3
	c0.8,0,1.5,0.3,2.1,0.7c0.2,0.2,0.4,0.4,0.6,0.6c0.4,0.5,0.7,1.3,0.7,2.1c0,1.1,0.9,1.9,1.9,1.9c0.7,0,1.4-0.4,1.7-1
	c0.2-0.3,0.2-0.6,0.2-0.9c0-0.7,0.2-1.5,0.7-2.1c0.2-0.2,0.3-0.4,0.6-0.6c0.6-0.4,1.3-0.7,2.1-0.7h0c0,0,0,0,0,0
	c0.8,0,1.5,0.3,2.1,0.7c0.2,0.2,0.4,0.4,0.6,0.6c0.4,0.6,0.7,1.3,0.7,2.1c0,0,0,0,0,0c0,1,0.9,1.9,1.9,1.9c1.1,0,1.9-0.9,1.9-1.9
	C19.8,16.9,18.9,16,17.9,16"/>
<path class="st0" d="M7.3,10.8c-1.1,0-1.9,0.9-1.9,1.9c0,1.1,0.9,1.9,1.9,1.9c1.1,0,1.9-0.9,1.9-1.9C9.3,11.6,8.4,10.8,7.3,10.8"/>
</svg>
