<?xml version="1.0" encoding="utf-8"?>
<!-- Generator: Adobe Illustrator 25.2.0, SVG Export Plug-In . SVG Version: 6.00 Build 0)  -->
<svg version="1.1" id="Calque_1" xmlns="http://www.w3.org/2000/svg" xmlns:xlink="http://www.w3.org/1999/xlink" x="0px" y="0px"
	 viewBox="0 0 155.7 155.7" style="enable-background:new 0 0 155.7 155.7;" xml:space="preserve">
<style type="text/css">
	.st0{fill:#908B80;stroke:#908B80;stroke-width:0.9577;stroke-miterlimit:10;}
</style>
<path class="st0" d="M139.5,0.1c-4.6,0-8.9,1.8-12.2,5L98.9,33.6L79.3,19.1c-4.8-3.5-11.2-3.5-16,0L36.1,39.2H19.8
	c-0.6,0-1.1,0.5-1.1,1.1v11.8L2.4,64.2c-0.3,0.2-0.4,0.5-0.4,0.9v77.7c0,6.7,5.5,12.2,12.2,12.2h114.3c6.7,0,12.2-5.5,12.2-12.2V65
	c0-0.3-0.2-0.7-0.4-0.9l-13.3-9.9l24.8-24.8c3.2-3.2,5-7.6,5-12.2c0-4.6-1.8-8.9-5-12.2C148.4,1.9,144,0.1,139.5,0.1z M64.5,20.8
	c4-3,9.5-3,13.5,0l19.3,14.3l-4.1,4.1H39.7L64.5,20.8z M20.8,41.4h70.3L81,51.5c-0.1,0.1-0.2,0.3-0.3,0.5l-0.9,3.5l0,0l-6.8,27
	c-0.1,0.4,0,0.7,0.3,1c0.3,0.3,0.6,0.4,1,0.3l30.5-7.7c0.2,0,0.4-0.1,0.5-0.3l16.4-16.4v21.9l-0.1,0.1l-30.2,30.2l-5.2-5.2
	c-4-4-9.3-6.2-14.9-6.2c-5.6,0-10.9,2.2-14.9,6.2l-5.2,5.2l-0.3-0.3L20.8,81.3V41.4z M79.4,65.9l2.9-11.6l20.1,20.1l-11.6,2.9
	l-0.1-0.1L79.4,65.9z M88.5,78l-13,3.3l3.3-13L88.5,78z M18.7,54.7v24.4L4.6,65.1L18.7,54.7z M10.7,152.2l-1.5-0.8
	c-3.2-1.8-5.2-5.1-5.2-8.8V67.6l45.6,45.6l-0.3,0.3L11.8,151L10.7,152.2z M13.1,152.7l12.8-12.8h41.9c0.6,0,1.1-0.5,1.1-1.1
	c0-0.6-0.5-1.1-1.1-1.1H28.1l11.2-11.2h21.2c0.6,0,1.1-0.5,1.1-1.1c0-0.6-0.5-1.1-1.1-1.1H41.4l16.5-16.5c3.6-3.6,8.3-5.5,13.4-5.5
	c5.1,0,9.8,2,13.4,5.5l44.8,44.8H13.1z M138.4,142.7c0,3.6-2,7-5.2,8.8l-1.3,0.7l-0.2-0.2l-38.9-38.9l0.3-0.3l45.3-45.3V142.7z
	 M137.9,65.1l-14.1,14.1V54.7L137.9,65.1z M144.4,33.6l-39.9,39.9l-9.9-9.9l24.4-24.4c0.2-0.2,0.3-0.5,0.3-0.8
	c0-0.3-0.1-0.6-0.3-0.8c-0.4-0.4-1.1-0.4-1.5,0L93.2,62.1l-9.9-9.9l0.3-0.3l39.9-39.9l21.3,21.3L144.4,33.6z M150.1,28L150.1,28
	l-3.9,3.9l-21.3-21.3l3.9-3.9c2.8-2.8,6.6-4.4,10.6-4.4c4,0,7.8,1.6,10.6,4.4c2.8,2.8,4.4,6.6,4.4,10.6
	C154.5,21.4,152.9,25.1,150.1,28z"/>
</svg>
