<?xml version="1.0" encoding="utf-8"?>
<!-- Generator: Adobe Illustrator 25.2.0, SVG Export Plug-In . SVG Version: 6.00 Build 0)  -->
<svg version="1.1" id="Calque_1" xmlns="http://www.w3.org/2000/svg" xmlns:xlink="http://www.w3.org/1999/xlink" x="0px" y="0px"
	 viewBox="0 0 155.7 155.7" style="enable-background:new 0 0 155.7 155.7;" xml:space="preserve">
<style type="text/css">
	.st0{fill:#f4f3e9;}
</style>
<g>
	<path class="st0" d="M156.4,38.2c2.9-5.5,0.7-12.4-4.8-15.2c-5.5-2.9-12.4-0.7-15.2,4.8l-19.8,38c-1.7,3.2-1.8,7.1-0.1,10.4
		l0.4,0.7l-7.3,13.8l-10-5c-0.5-0.3-1.2-0.1-1.6,0.4l-16.4,28.7c-2.4,4.2-3.6,8.7-3.6,13.4v2.4l-2.2-1c-1.9-0.9-4.1-1.4-6.2-1.4
		l-1.6,0.1l-0.3-1.1c-1-4.1-4.7-6.9-8.8-6.9h-1.6V96h4.2c15.5,0,28-12.6,28-27.8V57.5c0-3.6-2.9-6.4-6.4-6.4H62.4h-0.1
		c-9,0-17.5,4.3-22.9,11.5l-0.7,0.9l-1-0.3c-2.8-0.9-5.8-1.4-8.8-1.4l0,0H8.3c-3.6,0-6.4,2.9-6.4,6.4V79c0,15.4,12.6,27.8,27.8,27.8
		h14.9v13.7l-1.1,0.3c-1.6,0.4-3,1.2-4.2,2.4l-0.7,0.7l-0.9-0.3c-2.5-0.7-5.1-0.4-7.4,0.8s-3.7,3.4-4.4,5.9l-0.4,1.6l-1.6-0.4
		c-2.4-0.7-5-0.4-7.1,0.8c-2.2,1.2-3.6,3.3-4.3,5.6l-0.3,1.1H7v2.3h6.4c0.3,0,0.6-0.1,0.8-0.3c0.2-0.2,0.3-0.5,0.3-0.8
		c0-3.8,3-6.9,6.9-6.9c3.3,0,6,2.3,6.8,5.3h2.4c-0.3-1.6-1-3.1-2.1-4.5l-0.2-0.3l-0.1-0.4c-0.4-2.1,0.1-4.2,1.4-5.7
		c1.2-1.6,3.3-2.5,5.3-2.5c0.1,0,0.2,0,0.4,0c3.1,0.2,5.6,2.5,6.3,5.3H44c-0.3-1.8-1-3.3-2.3-4.7l-1.2-1.4l1.6-1
		c2.5-1.6,5.8-1.4,8.1,0.6l0.8,0.7l-0.4,1c-0.2,0.6-0.4,1.2-0.5,2h2.3c0.6-2.7,2.7-4.8,5.6-5.3c3.3-0.5,6.5,1.5,7.6,4.7l0.4,1.4
		l-1.4,0.5c-5.1,1.9-8.8,6.6-9.3,12h2.3c0.5-4.5,3.6-8.4,8-10c4.9-1.8,10.3-0.2,13.6,3.8l1.1,1.5l-1.6,0.8c-2.5,1.4-4.2,3.7-4.7,6.5
		h2.4c0.7-3,3.4-5.3,6.8-5.3s6,2.3,6.8,5.3h2.4c-0.1-0.7-0.4-1.6-0.7-2.3l-0.6-1.2l1.2-0.7c2.7-1.4,5.9-1.4,8.7,0l1.2,0.7l-0.6,1.2
		c-0.3,0.7-0.6,1.6-0.7,2.3h2.4c0.7-3,3.4-5.3,6.8-5.3c3.3,0,6,2.3,6.8,5.3h2.4c-0.1-0.7-0.3-1.2-0.5-2l-0.4-1l0.8-0.7
		c1.2-1,2.9-1.7,4.5-1.7c1,0,2,0.2,2.8,0.6c2.5,1.1,3.9,3.6,3.9,6.2c0,0.3,0.1,0.6,0.3,0.8c0.2,0.2,0.5,0.3,0.8,0.3h19.8v-2.3h-19
		l-0.3-1.1c-0.7-2.7-2.5-4.9-5.1-6c-2.5-1.1-5.4-1-7.9,0.1l-4.9,2.5l2.9-4.7c0.6-1,1.1-2,1.7-3l13.6-28.7c0.2-0.5,0-1.2-0.5-1.6
		L120.3,96l7.2-13.7l0.7-0.1c3.6-0.5,6.8-2.7,8.4-5.9L156.4,38.2z M42.1,62.7c5-6,12.3-9.6,20.2-9.6h0.1h20.7c2.3,0,4.2,1.9,4.2,4.2
		V68c0,10.8-6.9,20.6-17.1,24.1L61.9,95l6.6-5.5C75,84.2,78.7,76.4,78.7,68v-1.1h-2.3V68c0,10.8-6.9,20.5-17,24.1l-2.1,0.7V90
		c0-10.5-5.7-20-14.9-25L40.9,64L42.1,62.7z M55.2,121l-0.7,0.4c-0.4,0.2-0.7,0.4-1.1,0.7l-1,0.7l-0.9-0.7c-1-0.8-2.2-1.4-3.4-1.8
		l-1.1-0.3v-14.7c0-0.3-0.1-0.6-0.3-0.8s-0.5-0.3-0.8-0.3h-5.3c-14,0-25.6-11.4-25.6-25.6v-1.1h-2.3v1.1c0,8.3,3.6,16.2,10.2,21.5
		l6.8,5.5l-8.2-2.9C11,99,4.1,89.4,4,78.5V67.8c0-2.3,1.9-4.2,4.2-4.2h20.7C43.3,63.7,55,75.4,55.1,90L55.2,121L55.2,121z
		 M129.6,103.3l-13,27.8c-0.8,1.8-1.9,3.4-3,5l-0.6,0.7l-1-0.2c-2.7-0.7-5.4-0.1-7.6,1.5l-0.8,0.6l-0.8-0.5
		c-1.9-1.1-4.1-1.9-6.2-1.9l0,0l-3,0.1l8.5-15.7l-2-1l-10.4,19.1l-1.4-0.9c-1.4-0.9-3-1.5-4.7-1.6l-0.8-0.1l-0.4-0.7
		c-0.4-0.6-0.7-1.2-1.2-1.9l-0.2-0.3l-0.1-0.4c-1-5.8,0.1-11.9,3-17l15.9-27.7l9,4.5l-5.8,11c-0.7,1.4-0.8,3-0.4,4.5
		c0.4,1.6,1.6,2.7,2.9,3.5c1.4,0.7,3,0.9,4.5,0.4c1.6-0.4,2.7-1.6,3.5-2.9l5.9-11.2L129.6,103.3z M111.2,108.2L111.2,108.2
		c-0.6,1.2-1.9,2-3.2,2c-0.7,0-1.5-0.2-2.1-0.6c-1.6-1-2.1-3-1.2-4.8L118.2,79l1.5,1c0.7,0.5,1.6,1,2.3,1.4c0.3,0.1,0.7,0.2,1,0.4
		l1.8,0.5L111.2,108.2z M126.6,80c-1.2,0-2.4-0.2-3.6-0.7l0,0c-2.3-1-4.2-2.9-5-5.3s-0.7-5,0.5-7.2l19.9-38.1
		c2.2-4.2,7.2-5.9,11.5-4.2c2.3,1,4.2,2.9,5,5.3c0.8,2.4,0.7,5-0.5,7.2l-19.9,38.1C132.8,78.2,129.8,80,126.6,80z"/>
	<path class="st0" d="M151.3,146.6h-19.9c-0.4,0-0.7-0.1-0.9-0.3c-0.2-0.2-0.3-0.5-0.3-0.9c0-2.7-1.5-5.1-3.9-6.1
		c-0.8-0.4-1.7-0.6-2.8-0.6c-1.5,0-3.2,0.6-4.4,1.6l-0.8,0.7l0.4,1c0.1,0.2,0.1,0.4,0.2,0.6c0.1,0.5,0.3,0.9,0.4,1.4l0,0.1h-2.6
		l0-0.1c-0.4-1.7-1.4-3.1-2.8-4.1l0,0l0,0c-1.1-0.7-2.4-1.1-3.8-1.1c-3.2,0-5.9,2.1-6.7,5.2l0,0.1h-2.6l0-0.1
		c0.1-0.8,0.5-1.7,0.7-2.3l0.6-1.2l-1.2-0.7c-2.8-1.3-5.9-1.3-8.6,0l-1.2,0.7l0.6,1.2c0.4,1,0.6,1.7,0.7,2.3l0,0.1h-2.6l0-0.1
		c-0.7-3.1-3.5-5.2-6.7-5.2c-3.2,0-5.9,2.1-6.7,5.2l0,0.1h-2.6l0-0.1c0.5-2.9,2.3-5.3,4.7-6.6l1.5-0.8l-1.1-1.4
		c-3.3-4-8.7-5.5-13.5-3.8c-4.3,1.5-7.4,5.4-7.9,9.9l0,0.1h-2.5l0-0.1c0.5-5.4,4.3-10.3,9.4-12.1l1.3-0.5l-0.4-1.3
		c-1-3.2-4.2-5.1-7.5-4.6c-2.8,0.5-4.9,2.5-5.5,5.2l0,0.1h-2.5l0-0.1c0.1-0.7,0.3-1.4,0.5-2l0.4-1l-0.8-0.7c-2.2-1.9-5.5-2.2-8-0.6
		l-1.5,1l1.2,1.3c1.2,1.3,2,2.9,2.3,4.7l0,0.1h-2.6l0-0.1c-0.7-2.9-3.3-5-6.3-5.2h-0.4c-2,0-4,1-5.2,2.5c-1.2,1.6-1.7,3.6-1.3,5.6
		l0.1,0.4l0.2,0.3c1.1,1.4,1.8,2.9,2.1,4.5l0,0.1h-2.6l0-0.1c-0.7-3.1-3.5-5.2-6.7-5.2c-3.8,0-6.8,3-6.8,6.8c0,0.4-0.1,0.7-0.3,0.9
		c-0.2,0.2-0.5,0.3-0.9,0.3H6.9V139h5.2l0.3-1.1c0.7-2.4,2.2-4.5,4.3-5.7c2.1-1.3,4.7-1.6,7.1-0.8l1.5,0.4l0.4-1.5
		c0.7-2.7,2.2-4.8,4.4-6c2.3-1.3,5-1.6,7.4-0.8l0.9,0.3l0.7-0.7c1.2-1.2,2.6-2,4.2-2.4l1.1-0.3v-13.5H29.7
		C14.3,106.9,1.7,94.4,1.7,79V68.3c0-3.7,2.9-6.5,6.5-6.5h20.6c3.2,0,6.2,0.5,8.9,1.4l1,0.3l0.7-0.9c5.5-7.4,13.8-11.6,22.9-11.6
		h20.9c3.7,0,6.5,2.9,6.5,6.5v10.7c0,15.4-12.6,27.9-28.1,27.9h-4.1v24.2H59c4.2,0,7.9,2.8,8.9,6.9l0.3,1.1l1.5-0.1
		c2.3,0,4.5,0.5,6.3,1.4l2,1v-2.2c0-4.6,1.3-9.3,3.6-13.4L98,86.2c0.3-0.6,1.1-0.8,1.7-0.4l9.9,4.9l7.2-13.7l-0.4-0.7
		c-1.6-3.3-1.6-7.2,0.1-10.5l19.8-38c1.4-2.7,3.7-4.7,6.6-5.6c2.9-0.9,6-0.6,8.7,0.8c2.7,1.4,4.7,3.7,5.6,6.6c0.9,2.9,0.6,6-0.8,8.7
		l-19.8,38c-1.7,3.2-4.8,5.4-8.5,6l-0.7,0.1L120.4,96l11.3,5.7c0.5,0.3,0.8,1.1,0.6,1.7L118.7,132c-0.5,1-1,1.9-1.7,3l-2.7,4.4
		l4.6-2.3c2.6-1.2,5.5-1.2,8-0.1c2.6,1.1,4.4,3.3,5.1,6.1l0.3,1.1h19V146.6z M123.5,138.4c1,0,2,0.2,2.8,0.6c2.4,1.1,4,3.6,4,6.3
		c0,0.3,0.1,0.6,0.3,0.8c0.2,0.2,0.5,0.3,0.8,0.3h19.7v-2.1h-19l-0.3-1.2c-0.7-2.7-2.5-4.9-5-6c-2.4-1.1-5.3-1.1-7.8,0.1l-4.9,2.5
		c1.4,0.9,2.4,2.4,2.8,4h2.2c-0.1-0.5-0.2-0.9-0.3-1.3c-0.1-0.2-0.1-0.4-0.2-0.6l-0.4-1.1l0.9-0.8
		C120.2,139,121.9,138.4,123.5,138.4z M100.9,143.8h2.2c0.8-3.1,3.6-5.3,6.8-5.3c1.4,0,2.8,0.4,3.9,1.2l0.1-0.1l2.9-4.7
		c0.6-1.1,1.2-2,1.7-3l13.6-28.7c0.2-0.5,0-1.2-0.5-1.4L120.1,96l0-0.1l7.2-13.8l0.8-0.1c3.6-0.5,6.7-2.7,8.3-5.9l19.8-38
		c1.4-2.6,1.7-5.7,0.8-8.5c-0.9-2.9-2.9-5.2-5.5-6.5c-2.6-1.4-5.7-1.7-8.5-0.8c-2.9,0.9-5.2,2.9-6.5,5.5l-19.8,38
		c-1.7,3.2-1.7,7.1-0.1,10.3L117,77l0,0l-7.3,13.9l-0.1,0l-10-5c-0.5-0.3-1.1-0.1-1.4,0.4L81.8,115c-2.4,4.1-3.6,8.7-3.6,13.4v2.5
		l-2.3-1.1c-1.8-0.9-3.9-1.3-6.2-1.3l-1.6,0.1l-0.3-1.2c-1-4-4.6-6.8-8.7-6.8h-1.7V95.9h4.3c15.4,0,27.9-12.4,27.9-27.7V57.5
		c0-3.6-2.8-6.3-6.3-6.3H62.3c-9,0-17.3,4.2-22.8,11.5l-0.8,1l-1.1-0.3c-2.7-0.9-5.6-1.3-8.8-1.3H8.3c-3.6,0-6.3,2.8-6.3,6.3V79
		c0,15.3,12.4,27.7,27.7,27.7h14.9v13.9l-1.2,0.3c-1.6,0.4-3,1.2-4.1,2.4l-0.8,0.8l-1-0.3c-2.4-0.7-5-0.4-7.3,0.8
		c-2.1,1.2-3.7,3.2-4.3,5.9l-0.4,1.7l-1.6-0.4c-2.4-0.7-4.9-0.4-7,0.8c-2.1,1.2-3.6,3.2-4.2,5.6l-0.3,1.2H7.1v2.1h6.3
		c0.3,0,0.6-0.1,0.8-0.3c0.2-0.2,0.3-0.5,0.3-0.8c0-3.9,3.1-7,7-7c3.2,0,6,2.2,6.8,5.3h2.2c-0.3-1.5-1-3-2-4.3l-0.2-0.3l-0.1-0.4
		c-0.4-2.1,0.1-4.2,1.4-5.8c1.2-1.5,3.3-2.5,5.4-2.5h0.4c3,0.2,5.6,2.4,6.4,5.3h2.2c-0.3-1.8-1.1-3.2-2.2-4.5l-1.3-1.4l1.7-1.1
		c2.6-1.6,5.9-1.3,8.2,0.6l0.9,0.8l-0.4,1.1c-0.2,0.6-0.4,1.2-0.5,1.8h2.1c0.7-2.8,2.8-4.8,5.7-5.3c3.4-0.5,6.6,1.5,7.7,4.7l0.4,1.4
		l-1.4,0.6c-5,1.8-8.7,6.6-9.3,11.9h2.1c0.6-4.5,3.7-8.4,8.1-10c4.9-1.8,10.4-0.2,13.7,3.9l1.2,1.5l-1.7,0.9
		c-2.4,1.3-4.1,3.6-4.6,6.4h2.2c0.8-3.1,3.6-5.3,6.8-5.3c3.2,0,6,2.2,6.8,5.3h2.2c-0.1-0.6-0.3-1.3-0.7-2.2l-0.7-1.3l0.1,0l1.2-0.7
		c2.8-1.4,6-1.4,8.8,0l1.3,0.8l-0.7,1.3C101.4,142.2,101.1,143,100.9,143.8z M89.6,138.9l-1.4-1c-1.3-0.9-2.9-1.4-4.6-1.5l-0.9-0.1
		l-0.4-0.8c-0.1-0.2-0.3-0.4-0.4-0.6c-0.2-0.4-0.5-0.8-0.8-1.2l-0.2-0.3l-0.1-0.4c-1-5.7,0.1-12,3-17.1L99.7,88l0.1,0l9.1,4.5l0,0.1
		l-5.8,11c-0.7,1.3-0.8,2.9-0.4,4.4c0.4,1.4,1.3,2.5,2.9,3.5c1.4,0.7,3,0.9,4.4,0.4c1.4-0.4,2.5-1.3,3.5-2.9l6-11.3l10.4,5.5l0,0.1
		l-13,27.8c-0.8,1.7-1.8,3.3-3,5l-0.7,0.8l-1.1-0.2c-2.6-0.7-5.2-0.2-7.5,1.4l-0.9,0.7l-0.9-0.6c-2-1.2-4.1-1.9-6.2-1.9l-3.2,0.1
		l0.1-0.1l8.5-15.6l-1.8-1L89.6,138.9z M82.8,136.1l0.8,0.1c1.7,0.1,3.4,0.7,4.7,1.6l1.3,0.9l10.4-19.1l2.1,1.1l0,0.1l-8.4,15.5
		l2.8-0.1c2.1,0,4.3,0.7,6.3,1.9l0.8,0.5l0.8-0.6c2.3-1.7,5-2.2,7.7-1.5l1,0.2l0.6-0.7c1.2-1.7,2.2-3.3,3-5l12.9-27.8L119.4,98
		l-5.9,11.1c-1,1.6-2.2,2.6-3.6,3c-1.4,0.5-3.1,0.3-4.5-0.4c-1.6-1-2.6-2.2-3-3.6c-0.4-1.5-0.3-3.2,0.4-4.5l5.8-10.9l-8.9-4.4
		l-15.8,27.7c-2.9,5.1-4,11.3-3,17l0.1,0.4l0.2,0.3c0.3,0.4,0.6,0.8,0.9,1.2c0.1,0.2,0.3,0.4,0.4,0.6L82.8,136.1z M52.3,123l-1-0.8
		c-0.9-0.7-2-1.3-3.4-1.8l-1.2-0.3v-14.8c0-0.3-0.1-0.6-0.3-0.8c-0.2-0.2-0.5-0.3-0.8-0.3h-5.3c-14.1,0-25.6-11.5-25.6-25.6v-1h-2.1
		v1c0,8.4,3.7,16.2,10.1,21.4l7.2,5.9l-8.7-3.1c-5.1-1.8-9.4-5.1-12.5-9.5C5.6,89,4,83.9,3.9,78.5V67.8c0-2.3,1.9-4.3,4.3-4.3h20.7
		c7,0,13.6,2.7,18.6,7.7c5,5,7.7,11.6,7.8,18.7l0.1,31.1l-0.8,0.4c-0.4,0.2-0.7,0.4-1.1,0.7L52.3,123z M46.9,120l1.1,0.3
		c1.5,0.5,2.5,1,3.5,1.8l0.9,0.7l1-0.7c0.4-0.3,0.7-0.5,1.2-0.7l0.7-0.4L55,90c-0.1-14.4-11.8-26.2-26.2-26.2H8.2
		c-2.2,0-4.1,1.8-4.1,4.1v10.7c0.1,10.7,7,20.4,17.2,24.1l7.7,2.7l-6.3-5.2C16.2,95,12.4,87.1,12.4,78.7v-1.2h2.5v1.2
		c0,14,11.4,25.5,25.5,25.5h5.3c0.4,0,0.7,0.1,0.9,0.3c0.2,0.2,0.3,0.5,0.3,0.9V120z M108,110.2c-0.8,0-1.5-0.2-2.1-0.6
		c-1.6-1.1-2.1-3.1-1.3-4.9l13.6-25.9l1.5,1.1c0.6,0.4,1.5,1,2.3,1.3c0.1,0,0.1,0,0.2,0.1c0.3,0.1,0.6,0.2,0.9,0.4l1.9,0.5l-13.6,26
		C110.7,109.4,109.4,110.2,108,110.2z M118.2,79.1l-13.5,25.7c-0.8,1.7-0.3,3.6,1.2,4.7c0.6,0.4,1.3,0.6,2,0.6
		c1.3,0,2.5-0.7,3.1-1.9l0,0l13.4-25.8l-1.7-0.5c-0.2-0.2-0.5-0.3-0.8-0.3c-0.1,0-0.1,0-0.2-0.1c-0.8-0.4-1.7-0.9-2.3-1.4
		L118.2,79.1z M61.4,95.2l7.1-5.8c6.4-5.3,10.1-13.1,10.1-21.4v-1h-2.1v1c0,10.8-6.9,20.5-17.1,24.2l-2.2,0.8V90
		c0-10.4-5.7-20-14.8-24.9l-1.7-1l1.3-1.4c5-6.1,12.4-9.6,20.2-9.6h20.8c2.3,0,4.3,1.9,4.3,4.3V68c0,10.9-6.9,20.7-17.2,24.2
		L61.4,95.2z M76.3,66.7h2.5V68c0,8.4-3.7,16.2-10.2,21.6l-6.2,5.2l7.7-2.7c10.2-3.5,17.1-13.2,17.1-24V57.3c0-2.2-1.8-4.1-4.1-4.1
		H62.3c-7.8,0-15.1,3.5-20.1,9.5l0,0L41,64l1.5,0.9c9.2,5,14.9,14.6,14.9,25.1v2.7l2-0.7c10.2-3.6,17-13.3,17-24V66.7z M126.6,80.1
		c-1.3,0-2.5-0.2-3.7-0.7c-2.4-1.1-4.2-3-5-5.4c-0.9-2.5-0.7-5.1,0.5-7.2l19.9-38.1c2.2-4.2,7.2-6,11.6-4.2c2.4,1.1,4.2,3,5,5.4
		c0.9,2.5,0.7,5.1-0.5,7.2l-19.9,38.1C132.9,78.3,129.9,80.1,126.6,80.1z M146.5,23.9c-3.3,0-6.4,1.8-7.9,4.8l-19.9,38.1
		c-1.2,2.1-1.4,4.6-0.5,7.1c0.8,2.3,2.6,4.2,4.9,5.2c1.2,0.5,2.3,0.7,3.6,0.7c3.3,0,6.2-1.8,7.8-4.8L154.3,37
		c1.2-2.1,1.4-4.6,0.5-7.1c-0.8-2.3-2.6-4.2-4.9-5.2C148.8,24.2,147.6,23.9,146.5,23.9z"/>
</g>
</svg>
