<?xml version="1.0" encoding="utf-8"?>
<!-- Generator: Adobe Illustrator 25.1.0, SVG Export Plug-In . SVG Version: 6.00 Build 0)  -->
<svg version="1.1" id="Calque_1" xmlns="http://www.w3.org/2000/svg" xmlns:xlink="http://www.w3.org/1999/xlink" x="0px" y="0px"
	 viewBox="0 0 155.7 155.7" style="enable-background:new 0 0 155.7 155.7;" xml:space="preserve">
<style type="text/css">
	.st0{fill:#66645f;}
</style>
<path class="st0" d="M153,93.5l-2.2-0.9l-9,22.7h-2.9V85.8h-4.9V46.4h-9.8v-9.8h-2.4v9.8h-7.5V31.7h-2.4v14.8h-7.5v-9.8h-2.4v9.8
	h-9.8v29.5h-9.8v14.9L80,88c-5.7-7-13.3-11.9-22-14.2l-0.7-0.2l-1.8-5.3l1.3-0.3c3.2-0.9,5.9-3.2,7.2-6.1l0.3-0.8h1.9
	c4.7,0,8.5-3.8,8.5-8.5V38.9H76c2,0,3.7-1.6,3.7-3.7v-4.9c0-2-1.6-3.7-3.7-3.7h-1.5l-0.2-1.1C72,11.9,60.3,2,46.5,2
	s-25.6,9.9-27.8,23.5l-0.2,1.1H17c-2,0-3.7,1.6-3.7,3.7v4.9c0,2,1.6,3.7,3.7,3.7h1.3v13.6c0,4.7,3.8,8.5,8.5,8.5h1.9l0.3,0.8
	c1.4,3.1,3.9,5.3,7.2,6.1l1.3,0.3l-1.8,5.3L35,73.7c-18.6,4.9-31.5,21.7-31.5,41v1.6c0,9.7,5.4,18.5,14.1,22.9l0.7,0.3v12.3h71.2
	v-19.7h10l0.2,1c1,5.1,5.5,8.8,10.8,8.8c5.2,0,9.7-3.7,10.8-8.8l0.2-1h13.4c9.2,0,17.1-6.7,18.6-15.7l0.3-1.4h-9.5L153,93.5z
	 M136.4,88.1v27.1h-22.3V88.1H136.4z M94.6,48.8h37v37h-17.3v-9.9H94.6V48.8z M84.7,78.3h27.1v37H84.7V78.3z M58.9,132.4
	c2,0,3.8,1.7,3.8,3.8c0,2-1.7,3.8-3.8,3.8h-16v-8.2l3.2-3.2c0.7-0.7,1.6-1.1,2.6-1.1h2.9c2,0,3.8,1.7,3.8,3.8v1.2L58.9,132.4
	L58.9,132.4z M46.7,87.3l-8.5-12.8l2-6.1h13l2,6.1L46.7,87.3z M55.4,78.6v19.8l-7.2-9L55.4,78.6z M45.2,89.3l-7.2,9V78.5L45.2,89.3z
	 M46.7,91.3l8.6,10.8v24l-1.7-0.6c-0.7-0.3-1.4-0.3-2-0.3h-2.9c-1.6,0-3.2,0.6-4.3,1.8l-3,3l-3.3-0.8v-27L46.7,91.3z M66.4,58.7
	h-1.3V46.3h1.3c3.4,0,6.2,2.8,6.2,6.2C72.6,56,69.8,58.7,66.4,58.7z M72.5,46.3l-2-1.1c-1.4-0.8-2.8-1.2-4.3-1.2H65v-5h7.5V46.3z
	 M52.8,5.2l1.6,0.5C63.4,8.6,70.1,16,72,25.3l0.3,1.5H52.8V5.2z M42.9,4.8l1.2-0.1c1.8-0.2,3.4-0.2,5.2,0l1.2,0.1v22H43L42.9,4.8
	L42.9,4.8z M21.3,25.3c1.9-9.2,8.6-16.7,17.6-19.5l1.6-0.5v21.6H21L21.3,25.3z M28.3,58.7H27c-3.4,0-6.2-2.8-6.2-6.2
	c0-3.4,2.8-6.2,6.2-6.2h1.3V58.7z M28.3,43.9H27c-1.4,0-2.9,0.4-4.3,1.2l-2,1.1v-7.3h7.5V43.9z M15.9,36.6v-7.5h61.6v7.5H15.9z
	 M30.6,57.4V38.9h32.1v18.5c0,4.8-3.9,8.6-8.6,8.6H39.3C34.5,66.1,30.6,62.2,30.6,57.4z M6.1,116.4v-1.6c0-17.6,11.3-32.9,28-38.2
	l1.7-0.5v52.5l-4.3-0.9c-6.2-1.4-10.7-6.8-10.7-13.2v-9h-2.4v9c0,7.5,5.1,13.9,12.4,15.5l9.6,2.1v7.7H29.4
	C16.6,139.8,6.1,129.3,6.1,116.4z M35.7,149.7H20.8v-9l1.6,0.4c2.3,0.7,4.7,1,7,1h6.2V149.7z M55.4,149.7H38v-7.5h17.3V149.7z
	 M72.5,149.7H57.7v-7.5h1.3c3.3,0,6.1-2.7,6.1-6.1s-2.7-6.1-6.1-6.1h-1.3V76.3l1.7,0.5c9.7,3.1,17.9,9.7,22.9,18.7l0.2,0.3v19.6
	h-2.9l-9-22.7l-2.2,0.9l8.7,21.7h-9.5l0.3,1.4c0.6,3.6,2.1,6.8,4.6,9.5l0.3,0.3L72.5,149.7L72.5,149.7z M87.2,149.7H74.9v-20.9
	l1.9,1.1c2.8,1.6,6,2.5,9.2,2.5h1.3V149.7z M110.6,139.8c-4.8,0-8.6-3.9-8.6-8.6c0-2,1.7-3.8,3.8-3.8h9.8c2,0,3.8,1.7,3.8,3.8
	C119.2,135.9,115.4,139.8,110.6,139.8z M151,117.6l-0.7,1.7c-2.4,6.5-8.4,10.7-15.4,10.7h-13.5l-0.3-0.9c-0.9-2.5-3.2-4.1-5.7-4.1
	h-9.8c-2.6,0-4.9,1.6-5.7,4.1l-0.3,0.9H86c-6.8,0-13-4.3-15.4-10.7l-0.7-1.7H151z"/>
<rect x="121.7" y="56.2" class="st0" width="2.4" height="2.4"/>
<rect x="111.9" y="56.2" class="st0" width="2.4" height="2.4"/>
<rect x="102" y="56.2" class="st0" width="2.4" height="2.4"/>
<rect x="121.7" y="66.1" class="st0" width="2.4" height="2.4"/>
<rect x="102" y="66.1" class="st0" width="2.4" height="2.4"/>
<rect x="111.9" y="66.1" class="st0" width="2.4" height="2.4"/>
<rect x="121.7" y="75.9" class="st0" width="2.4" height="2.4"/>
<rect x="92.2" y="85.7" class="st0" width="2.4" height="22"/>
<rect x="102" y="85.7" class="st0" width="2.4" height="22"/>
<rect x="121.7" y="95.6" class="st0" width="7.2" height="2.4"/>
<rect x="121.7" y="105.4" class="st0" width="7.2" height="2.4"/>
<rect x="34.5" y="43.4" class="st0" width="2.3" height="2.3"/>
<rect x="53.9" y="43.4" class="st0" width="2.3" height="2.3"/>
<rect x="44.2" y="43.4" class="st0" width="2.3" height="7.2"/>
<path class="st0" d="M46.1,60.3c-0.3,0-0.4,0-0.7,0c-3,0.1-5.5-2-6.1-4.9H37c0.5,3.9,3.8,7.1,7.8,7.2c0.2,0,0.3,0,0.5,0
	c4.3,0.2,7.9-3.1,8.4-7.2h-2.3c-0.2,1-0.7,2-1.4,2.9C49,59.6,47.6,60.2,46.1,60.3z"/>
</svg>
