<?xml version="1.0" encoding="utf-8"?>
<!-- Generator: Adobe Illustrator 25.1.0, SVG Export Plug-In . SVG Version: 6.00 Build 0)  -->
<svg version="1.1" id="Calque_1" xmlns="http://www.w3.org/2000/svg" xmlns:xlink="http://www.w3.org/1999/xlink" x="0px" y="0px"
	 viewBox="0 0 155.7 155.7" style="enable-background:new 0 0 155.7 155.7;" xml:space="preserve">
<style type="text/css">
	.st0{fill:#918C80;stroke:#918C80;stroke-width:0.1837;stroke-miterlimit:10;}
</style>
<path class="st0" d="M151.3,33.6c2.8-5.3,0.7-11.9-4.6-14.6c-5.3-2.8-11.9-0.7-14.6,4.6L113,60.2c-1.6,3.1-1.7,6.8-0.1,10l0.4,0.7
	l-7,13.3l-9.6-4.8c-0.5-0.3-1.2-0.1-1.5,0.4l-15.8,27.6c-2.3,4-3.5,8.4-3.5,12.9v2.3l-2.1-1c-1.8-0.9-3.9-1.3-6-1.3l-1.5,0.1
	l-0.3-1.1c-1-3.9-4.5-6.6-8.5-6.6h-1.5V89.2h4C74.9,89.2,87,77.1,87,62.4V52.1c0-3.5-2.8-6.2-6.2-6.2H60.8h-0.1
	c-8.7,0-16.8,4.1-22,11.1l-0.7,0.9l-1-0.3c-2.7-0.9-5.6-1.3-8.5-1.3l0,0H8.7c-3.5,0-6.2,2.8-6.2,6.2v10.3
	c0,14.8,12.1,26.8,26.8,26.8h14.3v13.2l-1.1,0.3c-1.5,0.4-2.9,1.2-4,2.3l-0.7,0.7l-0.9-0.3c-2.4-0.7-4.9-0.4-7.1,0.8
	s-3.6,3.3-4.2,5.7l-0.4,1.5l-1.5-0.4c-2.3-0.7-4.8-0.4-6.8,0.8c-2.1,1.2-3.5,3.2-4.1,5.4l-0.3,1.1H7.5v2.2h6.2
	c0.3,0,0.6-0.1,0.8-0.3c0.2-0.2,0.3-0.5,0.3-0.8c0-3.7,2.9-6.6,6.6-6.6c3.2,0,5.8,2.2,6.5,5.1h2.3c-0.3-1.5-1-3-2-4.3l-0.2-0.3
	l-0.1-0.4c-0.4-2,0.1-4,1.3-5.5c1.2-1.5,3.2-2.4,5.1-2.4c0.1,0,0.2,0,0.4,0c3,0.2,5.4,2.4,6.1,5.1h2.3c-0.3-1.7-1-3.2-2.2-4.5
	l-1.2-1.3l1.5-1c2.4-1.5,5.6-1.3,7.8,0.6l0.8,0.7l-0.4,1c-0.2,0.6-0.4,1.2-0.5,1.9h2.2c0.6-2.6,2.6-4.6,5.4-5.1
	c3.2-0.5,6.3,1.4,7.3,4.5l0.4,1.3l-1.3,0.5c-4.9,1.8-8.5,6.4-9,11.6h2.2c0.5-4.3,3.5-8.1,7.7-9.6c4.7-1.7,9.9-0.2,13.1,3.7l1.1,1.4
	l-1.5,0.8c-2.4,1.3-4,3.6-4.5,6.3h2.3c0.7-2.9,3.3-5.1,6.5-5.1s5.8,2.2,6.5,5.1h2.3c-0.1-0.7-0.4-1.5-0.7-2.2l-0.6-1.2l1.2-0.7
	c2.6-1.3,5.7-1.3,8.4,0l1.2,0.7l-0.6,1.2c-0.3,0.7-0.6,1.5-0.7,2.2h2.3c0.7-2.9,3.3-5.1,6.5-5.1s5.8,2.2,6.5,5.1h2.3
	c-0.1-0.7-0.3-1.2-0.5-1.9l-0.4-1l0.8-0.7c1.2-1,2.8-1.6,4.3-1.6c1,0,1.9,0.2,2.7,0.6c2.4,1.1,3.8,3.5,3.8,6c0,0.3,0.1,0.6,0.3,0.8
	c0.2,0.2,0.5,0.3,0.8,0.3h19.1v-2.2h-18.3l-0.3-1.1c-0.7-2.6-2.4-4.7-4.9-5.8c-2.4-1.1-5.2-1-7.6,0.1l-4.7,2.4l2.8-4.5
	c0.6-1,1.1-1.9,1.6-2.9L128,96.2c0.2-0.5,0-1.2-0.5-1.5l-11-5.5l6.9-13.2l0.7-0.1c3.5-0.5,6.5-2.6,8.1-5.7L151.3,33.6z M41.3,57.1
	c4.8-5.8,11.8-9.2,19.4-9.2h0.1h19.9c2.2,0,4,1.8,4,4v10.3c0,10.4-6.6,19.8-16.5,23.2l-7.9,2.8l6.4-5.3c6.2-5.1,9.8-12.6,9.8-20.7
	v-1.1h-2.2v1.1c0,10.4-6.6,19.7-16.4,23.2l-2,0.7v-2.7c0-10.1-5.5-19.3-14.3-24.1l-1.5-0.9L41.3,57.1z M53.9,113.3l-0.7,0.4
	c-0.4,0.2-0.7,0.4-1.1,0.7l-1,0.7l-0.9-0.7c-1-0.8-2.1-1.3-3.3-1.7l-1.1-0.3V98.2c0-0.3-0.1-0.6-0.3-0.8c-0.2-0.2-0.5-0.3-0.8-0.3
	h-5.1c-13.5,0-24.6-11-24.6-24.6v-1.1h-2.2v1.1c0,8,3.5,15.6,9.8,20.7l6.5,5.3l-7.9-2.8C11.3,92.1,4.7,82.8,4.6,72.4V62.1
	c0-2.2,1.8-4,4-4h19.9c13.9,0,25.2,11.3,25.3,25.3L53.9,113.3L53.9,113.3z M125.5,96.2L113,123c-0.8,1.7-1.8,3.3-2.9,4.8l-0.6,0.7
	l-1-0.2c-2.6-0.7-5.2-0.1-7.3,1.4l-0.8,0.6l-0.8-0.5c-1.8-1.1-3.9-1.8-6-1.8l0,0l-2.9,0.1l8.2-15.1l-1.9-1L87,130.4l-1.3-0.9
	c-1.3-0.9-2.9-1.4-4.5-1.5l-0.8-0.1l-0.4-0.7c-0.4-0.6-0.7-1.2-1.2-1.8l-0.2-0.3l-0.1-0.4c-1-5.6,0.1-11.5,2.9-16.4l15.3-26.7
	l8.7,4.3l-5.6,10.6c-0.7,1.3-0.8,2.9-0.4,4.3c0.4,1.5,1.5,2.6,2.8,3.4c1.3,0.7,2.9,0.9,4.3,0.4c1.5-0.4,2.6-1.5,3.4-2.8l5.7-10.8
	L125.5,96.2z M107.8,100.9L107.8,100.9c-0.6,1.2-1.8,1.9-3.1,1.9c-0.7,0-1.4-0.2-2-0.6c-1.5-1-2-2.9-1.2-4.6l13-24.8l1.4,1
	c0.7,0.5,1.5,1,2.2,1.3c0.3,0.1,0.7,0.2,1,0.4l1.7,0.5L107.8,100.9z M122.6,73.8c-1.2,0-2.3-0.2-3.5-0.7l0,0c-2.2-1-4-2.8-4.8-5.1
	s-0.7-4.8,0.5-6.9l19.2-36.7c2.1-4,6.9-5.7,11.1-4c2.2,1,4,2.8,4.8,5.1s0.7,4.8-0.5,6.9l-19.2,36.7
	C128.6,72.1,125.7,73.8,122.6,73.8z"/>
</svg>
