<?xml version="1.0" encoding="utf-8"?>
<!-- Generator: Adobe Illustrator 25.1.0, SVG Export Plug-In . SVG Version: 6.00 Build 0)  -->
<svg version="1.1" id="Calque_1" xmlns="http://www.w3.org/2000/svg" xmlns:xlink="http://www.w3.org/1999/xlink" x="0px" y="0px"
	 viewBox="0 0 155.7 155.7" style="enable-background:new 0 0 155.7 155.7;" xml:space="preserve">
<style type="text/css">
	.st0{fill:#66645f;}
</style>
<rect x="29.8" y="51.5" class="st0" width="2.4" height="2.4"/>
<rect x="49.7" y="51.5" class="st0" width="2.4" height="2.4"/>
<rect x="39.7" y="51.5" class="st0" width="2.4" height="7.4"/>
<path class="st0" d="M41.6,69c-0.3,0-0.4,0-0.7,0c-3.1,0.1-5.7-2-6.2-5h-2.4c0.5,4,3.9,7.3,8.1,7.4c0.2,0,0.4,0,0.5,0
	c4.4,0.2,8.2-3.2,8.7-7.4h-2.4c-0.2,1.1-0.7,2.1-1.4,3C44.7,68.2,43.2,68.9,41.6,69z"/>
<rect x="112.2" y="51.5" class="st0" width="2.4" height="7.4"/>
<path class="st0" d="M113.4,71.3c4.3,0,8-3.2,8.6-7.4h-2.4c-0.4,2.7-2.7,4.8-5.5,5c-0.3,0-0.4,0-0.7,0c-1.6,0.1-3.1-0.4-4.3-1.5
	c-1.1-1-1.8-2.2-1.9-3.5h-2.4C105.5,68.2,109.1,71.3,113.4,71.3z"/>
<path class="st0" d="M140.9,79h-17.1l2.9-2.4c1.7-1.3,3.2-2.9,4.3-4.7l0.4-0.6h12c0.6,0,1.1-0.5,1.1-1.1V52.7
	c0-17.2-13.9-31.1-31.1-31.1S82.2,35.5,82.2,52.7v17.4c0,0.6,0.5,1.1,1.1,1.1h12l0.4,0.6c1.2,1.8,2.6,3.3,4.3,4.7l2.9,2.4H85.8
	c-3.5,0-6.8,1.7-8.9,4.6l-1.1,1.4l-1.1-1.4c-2.1-2.8-5.4-4.6-8.9-4.6h-3.8V66.3h3.8c3.4,0,6.1-2.8,6.1-6.1s-2.8-6.1-6.1-6.1h-3.8
	v-5.4l1.5,0.2c0.8,0.1,1.6,0.2,2.4,0.2h1.1v-2.4h-1.1c-0.9,0-1.8-0.1-2.7-0.2l-1.1-0.2v-3.4c0-11.7-9.5-21.1-21.1-21.1
	s-21.1,9.5-21.1,21.1v3.8h-5V49h5v5.1H16c-3.4,0-6.1,2.8-6.1,6.1c0,3.3,2.8,6.1,6.1,6.1h3.8V79H16C9.9,79,4.9,84,4.9,90.1v31.1
	h147.2V90.1C152,84,147,79,140.9,79z M62.1,56.4h3.8c2.1,0,3.8,1.8,3.8,3.8c0,2-1.8,3.8-3.8,3.8h-3.8V56.4z M22.2,42.7
	c0-10.3,8.4-18.8,18.8-18.8s18.8,8.4,18.8,18.8v2.9l-1.8-0.9c-6.1-2.9-10.2-8.9-10.7-15.6h-2.5c-0.7,9.7-8.9,17.4-18.8,17.4h-3.9
	L22.2,42.7L22.2,42.7z M22.2,48.9h3.8c8,0,15.2-4.4,18.9-11.5l1.1-2.3l1.1,2.3c2.5,4.8,6.7,8.5,11.8,10.3l0.9,0.4v31H22.1L22.2,48.9
	L22.2,48.9z M48,81.3l-7.1,7.1l-7.1-7.1H48z M15.9,64c-2.1,0-3.8-1.8-3.8-3.8c0-2,1.8-3.8,3.8-3.8h3.8v7.6L15.9,64L15.9,64z
	 M19.8,119H7.2v-7.6h12.6V119z M59.7,119H22.1v-7.6h37.6V119z M74.7,119H62.1v-7.6h12.6V119z M74.7,109H62.1V99h-2.4v10H22.1V99
	h-2.4v10H7.1V90.2c0-4.8,3.9-8.8,8.8-8.8h14.5l9.6,9.6c0.4,0.4,1.2,0.4,1.7,0l9.6-9.6h14.5c4.8,0,8.8,3.9,8.8,8.8V109H74.7z
	 M84.6,69V52.7c0-15.9,12.9-28.8,28.8-28.8c15.9,0,28.8,12.9,28.8,28.8V69h-9.5l0.6-1.8c0.8-2.3,1.2-4.6,1.2-7V47.8
	c0-0.6-0.5-1.1-1.1-1.1h-14.2l-4.6-9.3c-0.4-0.6-1.1-0.8-1.8-0.4c-0.2,0.1-0.4,0.3-0.4,0.4l-4.6,9.3H93.4c-0.6,0-1.1,0.5-1.1,1.1
	v12.5c0,2.4,0.4,4.8,1.2,7l0.6,1.8L84.6,69L84.6,69z M94.6,60.2V48.9h7.6v5h2.4v-5h3.8l0,0c0.4,0,0.9-0.3,1.1-0.6l3.9-7.9l3.9,7.9
	c0.2,0.4,0.6,0.6,1.1,0.6l0,0h3.9v5h2.4v-5h7.6v11.3c0,10.3-8.4,18.8-18.8,18.8S94.6,70.6,94.6,60.2z M89.7,119H77.1v-7.6h12.6V119z
	 M134.7,119H92v-7.6h42.6V119z M149.7,119H137v-7.6h12.6V119z M149.7,109H137V99h-2.4v10H92V99h-2.4v10H77.1V90.2
	c0-4.8,3.9-8.8,8.8-8.8h55c4.8,0,8.8,3.9,8.8,8.8L149.7,109L149.7,109z"/>
</svg>
