<?xml version="1.0" encoding="utf-8"?>
<!-- Generator: Adobe Illustrator 25.1.0, SVG Export Plug-In . SVG Version: 6.00 Build 0)  -->
<svg version="1.1" id="Calque_1" xmlns="http://www.w3.org/2000/svg" xmlns:xlink="http://www.w3.org/1999/xlink" x="0px" y="0px"
	 viewBox="0 0 155.7 155.7" style="enable-background:new 0 0 155.7 155.7;" xml:space="preserve">
<style type="text/css">
	.st0{fill:#66645f;}
</style>
<path class="st0" d="M147.9,49l-17.4-5.3v-5.5l0.5-0.4c4.5-3.1,7.1-8.2,7.1-13.6v-7.7c0-9.1-7.4-16.5-16.5-16.5s-16.5,7.4-16.5,16.5
	v7.7c0,5.3,2.7,10.4,7.1,13.6l0.5,0.4v5.5l-16.1,4.8L96.2,48c-5.2-4.6-11.9-7.2-18.8-7.2c-6.7,0-13.2,2.4-18.4,6.8L58.5,48
	l-14.6-4.4v-5.5l0.5-0.4c4.5-3.1,7.1-8.2,7.1-13.6v-7.7C51.5,7.4,44.1,0,35,0S18.5,7.4,18.5,16.5v7.7c0,5.3,2.7,10.4,7.1,13.6
	l0.5,0.4v5.5L8.8,48.9c-4.9,1.4-8.1,5.9-8.1,11V79h2.4V59.9c0-4,2.6-7.5,6.4-8.6l17.3-5.2l0.5,0.7c1.4,1.9,4,4.2,7.7,4.2
	s6.2-2.2,7.7-4.2l0.5-0.7l13.3,4l-1.2,1.5c-3.3,4.1-5.3,9-6,14.2l-0.4,2.9l-2-2.1c-3.2-3.4-7.4-5.3-12-5.3
	c-9.1,0-16.5,7.4-16.5,16.5v7.7c0,5.3,2.7,10.4,7.1,13.6l0.5,0.4v5.5l-17.4,5.3c-4.9,1.4-8.1,5.9-8.1,11v21.7H30
	c2.1,0,3.9,1.8,3.9,3.9v8.9h89.3v-8.9c0-2.1,1.8-3.9,3.9-3.9h29.3v-21.7c0-5.1-3.3-9.5-8.1-11l-17.4-5.3v-5.5l0.5-0.4
	c4.5-3.1,7.1-8.2,7.1-13.6v-7.7c0-9.1-7.4-16.5-16.5-16.5c-4.5,0-8.6,1.8-11.8,5l-2.3,2.3v-5.7c0-4.5-2.4-8.6-6.3-10.8l-2.8-1.5
	l15-4.5l0.5,0.7c1.4,1.9,4,4.2,7.7,4.2c3.7,0,6.2-2.2,7.7-4.2l0.5-0.7l17.3,5.2c3.8,1.2,6.4,4.6,6.4,8.6v19h2.4V59.9
	C156.1,54.8,152.8,50.4,147.9,49z M20.8,16.5c0-7.8,6.3-14.1,14.1-14.1c7.8,0,14.1,6.3,14.1,14.1v1.3h-13c-2,0-3.9-0.8-5.3-2.2
	l-0.9-0.9l-0.9,0.9c-1.4,1.4-3.3,2.2-5.3,2.2h-2.9L20.8,16.5L20.8,16.5z M41.3,44.3l-0.2,0.4c-0.7,1.2-2.9,3.8-6.2,3.8
	s-5.4-2.7-6.2-3.8l-0.2-0.4v-4.8l1.7,0.5c3.1,0.9,6.3,0.9,9.5,0l1.7-0.5L41.3,44.3L41.3,44.3z M34.9,38.3c-7.8,0-14.1-6.3-14.1-14.1
	v-3.9h2.9c2,0,3.8-0.5,5.4-1.6l0.7-0.4l0.7,0.4c1.6,1.1,3.5,1.6,5.4,1.6h13v3.9C48.9,32,42.6,38.3,34.9,38.3z M50.2,91.5l0.7-1.9
	l1.4,1.4c1.9,1.9,4.4,2.9,7,3.2l0.8,0.1l0.3,0.8c1.2,3,3.2,5.8,5.8,7.8l0.5,0.4v6.8l-3.9,0.9l-0.4-0.2c-0.5-0.3-1-0.4-1.4-0.5
	l-17.4-5.2v-5.5l0.5-0.4C47,97.2,49,94.5,50.2,91.5z M59.3,90l0.2,2.1l-2-0.7c-1.5-0.5-2.8-1.3-3.7-2.4c-1.7-1.9-2.6-4.4-2.3-7
	c0.4-3.3,2.7-6.2,5.9-7.5l1.8-0.7v14.2C59.2,88.7,59.2,89.3,59.3,90z M69.3,110.4v-5.4l1.9,0.7c4.5,1.9,9.7,1.9,14.4,0l1.9-0.7v5.4
	l-9,6.8L69.3,110.4z M76,118.6l-9.7,5.9l-2.2-11.2l3.7-0.9L76,118.6z M88.7,112.3l3.7,0.8l-2.2,11.2l-9.7-5.8L88.7,112.3z
	 M78.3,104.7c-9.2,0-16.7-7.5-16.7-16.7V73.9h10c5.3,0,10.5-1.3,15.2-3.8l1.2-0.6l2.2,4.5h4.6v14.1C95,97.2,87.5,104.7,78.3,104.7z
	 M20.8,77.8c0-7.8,6.3-14.1,14.1-14.1c7.8,0,14.1,6.3,14.1,14.1v1.3h-2.9c-2,0-3.9-0.8-5.3-2.2l-0.9-0.9L39,76.9
	c-1.4,1.4-3.3,2.2-5.3,2.2h-13L20.8,77.8L20.8,77.8z M20.8,85.5v-3.9h13c2,0,3.8-0.5,5.4-1.6l0.7-0.4l0.7,0.4
	c1.6,1.1,3.5,1.6,5.4,1.6h2.9v3.9c0,7.8-6.3,14.1-14.1,14.1C27.1,99.6,20.8,93.3,20.8,85.5z M41.3,100.8v4.8l-0.2,0.4
	c-0.7,1.2-2.9,3.8-6.2,3.8s-5.4-2.7-6.2-3.8l-0.2-0.4v-4.8l1.7,0.5c3.1,0.9,6.3,0.9,9.5,0L41.3,100.8z M69.5,153.2H53.9v-20.4h-2.4
	v20.4H36.1v-6.4c0-3.5-2.9-6.3-6.3-6.3H18.2v-17.8h-2.4v17.8H2.8v-19.3c0-4,2.6-7.5,6.4-8.6l17.3-5.2l0.5,0.7c1.4,1.9,4,4.2,7.7,4.2
	c3.7,0,6.2-2.2,7.7-4.2l0.5-0.7l15.4,4.6l-12,2.8c-7.6,1.8-12.8,8.4-12.8,16.1v1.8h2.4v-1.8c0-6.6,4.5-12.2,11-13.7l14.7-3.4
	l2.9,14.5l5.2-3.1l2.1,6.4L69.5,153.2z M71.9,153.2l2.3-20.5h8l2.3,20.5H71.9z M82.5,130.3H74l-2.1-6.3l6.3-3.8l6.3,3.8L82.5,130.3z
	 M147.2,112.5c3.8,1.2,6.4,4.6,6.4,8.6v19.3h-12.9v-17.8h-2.4v17.8h-11.6c-3.5,0-6.3,2.9-6.3,6.3v6.4h-15.4v-20.4h-2.4v20.4H86.9
	l-2.4-21.7l2.1-6.4l5.2,3.1l2.9-14.5l14.7,3.4c6.4,1.5,11,7.1,11,13.7v1.8h2.4v-1.8c0-7.8-5.3-14.4-12.8-16.1l-12-2.8l15.4-4.6
	l0.5,0.7c1.4,1.9,4,4.2,7.7,4.2s6.2-2.2,7.7-4.2l0.5-0.7L147.2,112.5z M115.2,105.6v-4.8l1.7,0.5c3.1,0.9,6.3,0.9,9.5,0l1.7-0.5v4.8
	l-0.2,0.4c-0.7,1.2-2.9,3.8-6.2,3.8c-3.4,0-5.4-2.7-6.2-3.8L115.2,105.6z M107.5,77.8c0-7.8,6.3-14.1,14.1-14.1
	c7.8,0,14.1,6.3,14.1,14.1v1.3h-13c-2,0-3.9-0.8-5.3-2.2l-0.9-0.9l-0.9,0.9c-1.4,1.4-3.3,2.2-5.3,2.2h-2.9L107.5,77.8L107.5,77.8z
	 M107.5,81.6h2.9c2,0,3.8-0.5,5.4-1.6l0.7-0.4l0.7,0.4c1.6,1.1,3.5,1.6,5.4,1.6h13v3.9c0,7.8-6.3,14.1-14.1,14.1
	c-7.8,0-14.1-6.3-14.1-14.1L107.5,81.6L107.5,81.6z M106.3,91.5c1.2,3,3.2,5.6,6,7.5l0.5,0.4v5.5l-17.4,5.3
	c-0.4,0.1-0.9,0.3-1.4,0.5l-0.4,0.2l-3.9-0.9v-6.8l0.5-0.4c2.6-2.1,4.5-4.8,5.8-7.8l0.3-0.8L97,94c2.7-0.3,5.1-1.3,7-3.2l1.4-1.4
	L106.3,91.5z M97,92.1l0.2-2.1c0.1-0.6,0.1-1.3,0.1-2V73.9l1.8,0.7c3.3,1.2,5.6,4.2,5.9,7.5c0.3,2.6-0.5,5.1-2.3,7l0,0
	c-1,1.1-2.3,2-3.7,2.4L97,92.1z M105.1,62.9v12.8l-2.1-1.6c-2.1-1.6-4.7-2.5-7.3-2.5h-3.9l-2.9-5.7l-1.2,0.8
	c-4.8,3.2-10.4,4.9-16.2,4.9H60.8c-2.6,0-5.2,0.9-7.3,2.5l-2.1,1.6v-6.5c0-14.3,11.6-25.9,25.9-25.9c7,0,13.4,2.7,18.3,7.6l2.5,2.5
	l0.3,0.1C102.4,54.8,105.1,58.6,105.1,62.9z M107.5,16.5c0-7.8,6.3-14.1,14.1-14.1c7.8,0,14.1,6.3,14.1,14.1v1.3h-2.9
	c-2,0-3.9-0.8-5.3-2.2l-0.9-0.9l-0.9,0.9c-1.4,1.4-3.3,2.2-5.3,2.2h-13L107.5,16.5L107.5,16.5z M128.1,44.3l-0.2,0.4
	c-0.7,1.2-2.9,3.8-6.2,3.8c-3.4,0-5.4-2.7-6.2-3.8l-0.2-0.4v-4.8L117,40c3.1,0.9,6.3,0.9,9.5,0l1.7-0.5L128.1,44.3L128.1,44.3z
	 M121.7,38.3c-7.8,0-14.1-6.3-14.1-14.1v-3.9h13c2,0,3.8-0.5,5.4-1.6l0.7-0.4l0.7,0.4c1.6,1.1,3.5,1.6,5.4,1.6h2.9v3.9
	C135.8,32,129.5,38.3,121.7,38.3z"/>
<rect x="59.2" y="0" class="st0" width="2.4" height="2.4"/>
<rect x="59.2" y="10.2" class="st0" width="2.4" height="25.4"/>
<rect x="95" y="0" class="st0" width="2.4" height="2.4"/>
<rect x="95" y="10.2" class="st0" width="2.4" height="25.4"/>
<rect x="69.4" y="10.2" class="st0" width="2.4" height="15.2"/>
<rect x="69.4" y="33.2" class="st0" width="2.4" height="2.4"/>
<rect x="84.7" y="10.2" class="st0" width="2.4" height="15.2"/>
<rect x="84.7" y="33.2" class="st0" width="2.4" height="2.4"/>
<rect x="66.9" y="79.2" class="st0" width="2.4" height="2.4"/>
<rect x="87.2" y="79.2" class="st0" width="2.4" height="2.4"/>
<rect x="77" y="79.2" class="st0" width="2.4" height="7.5"/>
<path class="st0" d="M79,96.9c-0.3,0-0.4,0-0.7,0c-3.1,0.1-5.8-2.1-6.3-5.1h-2.4c0.5,4.1,3.9,7.4,8.2,7.5c0.2,0,0.4,0,0.5,0
	c4.5,0.2,8.3-3.2,8.8-7.5h-2.4c-0.2,1.1-0.7,2.1-1.4,3C82.1,96,80.6,96.8,79,96.9z"/>
</svg>
