<?xml version="1.0" encoding="utf-8"?>
<!-- Generator: Adobe Illustrator 25.1.0, SVG Export Plug-In . SVG Version: 6.00 Build 0)  -->
<svg version="1.1" id="Calque_1" xmlns="http://www.w3.org/2000/svg" xmlns:xlink="http://www.w3.org/1999/xlink" x="0px" y="0px"
	 viewBox="0 0 155.7 155.7" style="enable-background:new 0 0 155.7 155.7;" xml:space="preserve">
<style type="text/css">
	.st0{fill:#66645f;}
</style>
<path class="st0" d="M140.8,118.2H129l0.7-1.6c0.7-1.7,1.1-3.5,1.1-5.2V81.5c0-4.3-3.5-7.8-7.8-7.8c-3.7,0-6.8,2.5-7.6,6.1l-0.1,0.6
	l-0.6,0.2c-2.3,0.7-3.9,2.8-3.9,5.3c0,1.7,0.7,3.4,1.9,4.6l2.5,2.5v7.6L99,81.2c-2.8-3.4-6.8-5.4-11.2-5.9l-14.9-1.5V67H74
	c6.3,0,11.5-4.7,12.2-11l0.1-0.6l4.5-2.2v-0.7c0-9-3-15.6-5.2-19.9L85.1,32l0.4-0.6c1.9-2.2,2.8-5,2.8-7.8c0-6.7-5.5-12.2-12.2-12.2
	H62.8c-6.5,0-12.8,2.3-17.8,6.5l-0.6,0.5l-0.7-0.4c-2.3-1.4-4.9-2.2-7.5-2.2c-8,0-14.5,6.5-14.5,14.5c0,7.4,5.7,13.7,13.1,14.4
	l0.8,0.1l0.1,0.7c1.5,6.3,5.2,12,10.4,15.9l6.7,5v7.3l-13.6,1c-9.9,0.7-17.5,9-17.5,18.9V108c0,3,1.1,5.9,3.1,8.1l1.6,1.9H11.7
	c-1.9,0-3.4,1.5-3.4,3.4v22.2c0,1.9,1.5,3.4,3.4,3.4h129.1c1.9,0,3.4-1.5,3.4-3.4v-22.1C144.1,119.7,142.6,118.2,140.8,118.2z
	 M115.2,104.1v7.4h2.2V92.1l-3.2-3.2c-0.8-0.8-1.3-1.9-1.3-3c0-1.9,1.5-3.4,3.4-3.4h1.1v-1.1c0-3.1,2.5-5.6,5.6-5.6
	c3.1,0,5.6,2.5,5.6,5.6v29.9c0,2.2-0.7,4.4-2,6.3l-0.3,0.5h-18l-10.8-11.9l10.7-10.7L115.2,104.1z M105.3,118.2H87.1l0.4-1.4
	c0.3-1.1,0.7-2.1,1-3.1l0.6-1.4c0.9-2.3,1.4-4.7,1.5-7.3l0.1-2.8L105.3,118.2z M86.7,41c1,3.4,1.6,6.6,1.8,10.1v0.7L84,54.1v0.7
	c0,0.8-0.1,1.6-0.4,2.5l-0.2,0.8h-4.5c-2.2,0-4.3-1-5.6-2.9l-2,1c1.7,2.5,4.6,4.1,7.6,4.1h3.8l-2.2,1.9c-1.9,1.6-4.2,2.5-6.6,2.5
	h-7.8V67h4.5v7.5l-0.2,0.3c-0.7,1-3,3.4-7.6,3.4s-6.9-2.3-7.6-3.3L55,74.6v-8.3l0.3-0.3c2.6-3,4.2-6.9,4.2-10.8v-0.8l-3.2-3.2
	c-0.8-0.8-1.3-1.9-1.3-3c0-1.9,1.5-3.4,3.4-3.4h8.6l0.3,0.5c1.4,2.5,4,3.9,6.7,3.9c4.3,0,7.8-3.5,7.8-7.8v-1.1h4.6L86.7,41z
	 M59.5,42.5v-4.6c0-2,1-3.9,2.8-4.9l0.8-0.5l0.6,0.7c0.8,1,2,1.7,3.3,2.2l1.3,0.4L67.5,37c-0.9,1.3-1.3,2.8-1.3,4.4v1.1H59.5z
	 M68.4,41.4c0-3.1,2.5-5.6,5.6-5.6c3.1,0,5.6,2.5,5.6,5.6c0,3.1-2.5,5.6-5.6,5.6C70.9,47,68.4,44.4,68.4,41.4z M85.7,38H81l-0.3-0.5
	c-0.1-0.3-0.4-0.6-0.5-0.8l-0.9-1.2l1.4-0.5c0.6-0.2,1.2-0.5,1.8-0.9l1-0.6l0.5,1c0.3,0.6,0.6,1.2,0.9,1.9L85.7,38z M24.5,33.5
	c-0.4-1.2-0.5-2.3-0.5-3.4c0-3.8,1.7-7.3,4.8-9.6l0.7-0.6l0.7,0.7c2.2,2.2,3.7,5.1,4.5,8.1l0.2,1l-1,0.3c-2.8,0.8-5.4,2.2-7.7,4
	l-1.3,1L24.5,33.5z M35.7,33.6c-0.4,1.8-0.5,3.7-0.5,5.5c0,0.4,0.1,1,0.1,1.5l0.1,1.9l-1.4-0.3c-2.8-0.5-5.3-2-7.1-4.3l-0.7-0.8
	l0.8-0.7c2.2-1.9,4.6-3.2,7.3-4l1.8-0.6L35.7,33.6z M36.2,26.2c-0.8-2.2-1.9-4.3-3.4-6l-1.2-1.4l1.8-0.4c1-0.2,1.9-0.4,2.8-0.4
	c1.9,0,3.7,0.4,5.3,1.3l1.3,0.7l-1,1.1c-1.4,1.6-2.7,3.4-3.7,5.4L37,28.7L36.2,26.2z M47.5,59.6c-6.4-4.8-10.2-12.5-10.2-20.5
	c0-14.1,11.5-25.6,25.6-25.6h13.4c5.5,0,10,4.5,10,10s-4.5,10-10,10h-6.6c-3.1,0-5.6-2.5-5.6-5.6c0-2.7,1.9-4.9,4.5-5.4v-2.2
	c-3.7,0.5-6.6,3.8-6.6,7.7c0,0.5,0.1,1.1,0.1,1.6l0.1,0.8l-0.7,0.4c-2.5,1.4-4.1,4.1-4.1,7v4.7l-0.7,0.3c-2.2,0.8-3.7,2.9-3.7,5.2
	c0,1.7,0.7,3.4,1.9,4.6l2.5,2.5v0.5c-0.1,2.8-1.1,5.5-2.8,7.8l-0.7,0.9L47.5,59.6z M23.9,93.6c0-8.7,6.8-16,15.5-16.6l14-1l0.4,0.4
	c1.2,1.5,4,4,9.1,4c5.2,0,7.9-2.5,9.1-4l0.4-0.4l15.2,1.5c3.8,0.4,7.2,2.2,9.7,5.2l9.4,11.3L96,104.7l-6.3-6.9l-0.1-0.2
	c-0.4-1.3-0.8-2.3-1.3-3.2l-1-2.2c-0.7-1.3-1-2.9-1-4.5v-0.7H84v0.7c0,1.9,0.4,3.8,1.3,5.4l1,2.2c1.3,2.7,2.1,5.7,2.1,8.8
	c0,1.8-0.2,3.6-0.7,5.4l-0.9,3.1l-1.3-3c-0.9-2.1-2.6-3.7-4.8-4.4l-0.4-0.1L69.8,87.4c-1-1.6-2.8-2.7-4.8-2.7c-1,0-2,0.3-2.8,0.8
	c-2.6,1.6-3.5,5-1.9,7.6l6.9,11.6h-30V87h-2.2v17.8H23.8V93.6H23.9z M71,93.6l4,6.6l-1.7,0.2c-1.3,0.1-2.5,0.7-3.5,1.6l-1,0.9
	l-3.6-5.9L71,93.6z M64,95l-1.8-3c-0.4-0.7-0.6-1.6-0.4-2.5c0.2-0.9,0.7-1.6,1.5-2.1c0.7-0.4,1.6-0.6,2.5-0.4
	c0.9,0.2,1.6,0.7,2.1,1.5l1.9,3.1L64,95z M23.9,108.2v-1.1h43.9l3.2-3.2c0.8-0.8,1.9-1.3,3-1.3c1.9,0,3.4,1.5,3.4,3.4v1.1h1.1
	c3.1,0,5.6,2.5,5.6,5.6s-2.5,5.6-5.6,5.6H33.9C28.4,118.2,23.9,113.7,23.9,108.2z M84,120.4V136H50.6v-15.6H84z M141.9,144.9H10.6
	v-24.5h37.8v14.5c0,1.9,1.5,3.4,3.4,3.4H83c1.9,0,3.4-1.5,3.4-3.4v-14.5H142L141.9,144.9L141.9,144.9z"/>
<rect x="57.3" y="127.1" class="st0" width="20" height="2.2"/>
<path class="st0" d="M113,57v2.2c0,4.3,3.5,7.8,7.8,7.8c4.3,0,7.8-3.5,7.8-7.8V57c0-2.2,1.3-4.6,2.8-7.2c2.6-4.6,5.6-9.9,2.5-16.6
	c-2.2-4.6-6.5-7.8-11.2-8.4c-0.6-0.1-1.2-0.1-1.8-0.1c-3.5,0-6.9,1.3-9.6,3.6c-3.1,2.8-4.9,6.7-4.9,10.8s1.9,7.2,3.7,9.9
	C111.6,51.6,113,54,113,57z M126.3,59.1c0,3.1-2.5,5.6-5.6,5.6s-5.6-2.5-5.6-5.6V58h11.1L126.3,59.1L126.3,59.1z M112.7,30
	c2.7-2.4,6-3.4,9.7-3c4,0.5,7.7,3.3,9.5,7.2c2.7,5.7,0.1,10.2-2.4,14.5c-1.3,2.2-2.4,4.2-2.9,6.3l-0.2,0.9h-4.5V44.7l0.7-0.3
	c2.2-0.8,3.7-2.9,3.7-5.2c0-3.1-2.5-5.5-5.5-5.5c-3.1,0-5.5,2.5-5.5,5.5c0,2.3,1.5,4.4,3.7,5.2l0.7,0.3v11.2h-4.5l-0.1-0.9
	c-0.5-2.7-1.9-5-3.2-7c-1.6-2.6-3.3-5.3-3.3-8.8C108.6,35.6,110.1,32.3,112.7,30z M120.8,42.5c-1.9,0-3.4-1.5-3.4-3.4
	s1.5-3.4,3.4-3.4c1.9,0,3.4,1.5,3.4,3.4S122.7,42.5,120.8,42.5z"/>
<rect x="119.7" y="11.3" class="st0" width="2.2" height="6.6"/>
<rect x="110.3" y="13.2" transform="matrix(0.9238 -0.3828 0.3828 0.9238 2.1675 43.9019)" class="st0" width="2.2" height="6.6"/>
<rect x="126.9" y="15.3" transform="matrix(0.3827 -0.9239 0.9239 0.3827 65.1693 130.4451)" class="st0" width="6.6" height="2.2"/>
</svg>
