<?xml version="1.0" encoding="utf-8"?>
<!-- Generator: Adobe Illustrator 25.1.0, SVG Export Plug-In . SVG Version: 6.00 Build 0)  -->
<svg version="1.1" id="Calque_1" xmlns="http://www.w3.org/2000/svg" xmlns:xlink="http://www.w3.org/1999/xlink" x="0px" y="0px"
	 viewBox="0 0 155.7 155.7" style="enable-background:new 0 0 155.7 155.7;" xml:space="preserve">
<style type="text/css">
	.st0{fill:#66645f;stroke:#66645f;stroke-width:0.8609;stroke-miterlimit:10;}
</style>
<path class="st0" d="M50.9,15.9L2.7,32.2c-0.3,0.2-0.6,0.5-0.6,0.9v111.3c0,0.6,0.6,1.1,1.2,0.9l47.9-16.2l0.4,0.2l47.5,16h0.2h0.1
	h0.1h0.1h0.1h0.1l48.1-16.3c0.3-0.2,0.6-0.5,0.6-0.9V53.7v-0.2c0-0.2,0-0.3,0-0.4v-0.3v-7.3l0.2-0.3c4.6-7.8,7.1-14,7.1-17.8
	c-0.1-11-9.2-20.1-20.2-20.1c-10.4,0-19.3,8.1-20.1,18.5l-0.1,0.9L99.3,32l-48-16.2c0,0,0,0-0.1,0s-0.1,0-0.1,0l0,0h-0.1L50.9,15.9
	l-0.3-1.3l0,0L50.9,15.9L50.9,15.9z M50.3,127.4L4,143.1V90.1l46.3,16.6V127.4z M50.3,104.8L4,88.2V73.4L50.3,51V104.8z M50.3,40.6
	v8.3L4,71.4V33.8l46.3-15.7v22c0,0.1,0,0.2,0,0.3V40.6z M146.7,110.3l-35.3-27.6l35.3-27.3V110.3z M117.3,27
	c0.2-9.9,8.4-18.1,18.3-18.1l0,0c10.1,0,18.3,8.3,18.3,18.3c0,3.6-2.3,9.3-6.9,17l-0.2,0.2c-0.1,0.1-0.1,0.2-0.2,0.3l-0.1,0.2
	c-4,6.5-8.4,12.6-10.1,14.8l-1,1.4l-1-1.4c-2.8-3.8-16.9-23.1-17.3-32v-0.1v-0.1c0-0.1,0-0.2,0-0.3v-0.1L117.3,27z M100.4,33.8
	l15-5.1l0.3,1.5c2.2,10.2,14.2,26.6,17.8,31.4l0.8,1l-33.9,26.2V33.8z M100.4,91.2l9.5-7.3l36.8,28.8v14.7l-46.3,15.7V91.2z
	 M52.2,18.1l46.3,15.7v40.6L52.2,39.7V18.1z M52.2,42.1l46.3,34.7V98l-0.9,0.3c0,0-0.1,0-0.1,0.1l-21.1,9.8l2.7-3.9
	c5.6-8.2,8.6-14.6,8.6-18.3c0-7.8-6.4-14.2-14.2-14.2s-14.2,6.4-14.2,14.2c0,4.2,4.5,12.7,11.9,22.8l0.9,1.3l-20.1,9.4L52.2,42.1
	L52.2,42.1z M74.6,107.4l-1,1.4l-1-1.4c-1.9-2.6-11.3-15.5-11.3-21.3c0-6.8,5.5-12.3,12.3-12.3s12.3,5.5,12.3,12.3
	C85.8,91.9,76.5,104.9,74.6,107.4z M52.2,121.6L98.5,100v43.1l-46.3-15.7V121.6z"/>
<path class="st0" d="M135.6,38.9c6.4,0,11.5-5.2,11.5-11.5c0-4.6-2.8-8.9-7.1-10.7c-1.5-0.6-2.9-0.9-4.4-0.9c-3,0-5.9,1.2-8.2,3.4
	c-3.3,3.3-4.3,8.3-2.5,12.6C126.8,36.1,130.9,38.9,135.6,38.9z M126.7,23.7c1.5-3.6,5-5.9,9-5.9c5.3,0,9.6,4.3,9.6,9.6
	c0,3.9-2.3,7.4-5.9,9c-1.2,0.5-2.5,0.8-3.7,0.8c-2.5,0-5-0.9-6.8-2.8C126,31.4,125.2,27.3,126.7,23.7z"/>
<path class="st0" d="M73.5,93.2c4,0,7.1-3.2,7.1-7.1c0-2.9-1.7-5.5-4.4-6.6c-0.9-0.3-1.8-0.5-2.8-0.5c-1.9,0-3.7,0.7-5.1,2.1
	c-2.1,2.1-2.7,5.1-1.5,7.8C68,91.5,70.6,93.2,73.5,93.2z M68.6,84.1c0.7-1.5,2-2.7,3.6-3.1v-0.2h1.3c2.9,0,5.3,2.4,5.3,5.3
	c0,2.2-1.3,4-3.3,4.9c-0.7,0.3-1.4,0.4-2,0.4c-1.4,0-2.7-0.5-3.7-1.5C68.3,88.3,67.9,86.1,68.6,84.1z"/>
</svg>
