<svg id="Calque_1" data-name="Calque 1" xmlns="http://www.w3.org/2000/svg" viewBox="0 0 155.68 155.68"><defs><style>.cls-1{fill:#66645f;}</style></defs><path class="cls-1" d="M1378.93,412.32h33.61V363.46h-33.61Zm3.09-45.78h27.43v42.7H1382Z" transform="translate(-1368.76 -292.24)"/><rect class="cls-1" x="50.87" y="114.45" width="3.09" height="3.09"/><rect class="cls-1" x="50.87" y="124.62" width="3.09" height="20.89"/><rect class="cls-1" x="61.04" y="114.45" width="3.09" height="31.06"/><rect class="cls-1" x="71.21" y="114.45" width="3.09" height="31.06"/><rect class="cls-1" x="81.39" y="122.08" width="3.09" height="23.43"/><rect class="cls-1" x="91.56" y="122.08" width="3.09" height="23.43"/><rect class="cls-1" x="101.73" y="122.08" width="3.09" height="23.43"/><rect class="cls-1" x="111.91" y="122.08" width="3.09" height="23.43"/><rect class="cls-1" x="122.08" y="122.08" width="3.09" height="23.43"/><rect class="cls-1" x="132.25" y="122.08" width="3.09" height="23.43"/><rect class="cls-1" x="142.42" y="122.08" width="3.09" height="23.43"/><path class="cls-1" d="M1514.27,378.72h-64.13v28.52h64.13Zm-3.09,25.43h-58V381.8h58Z" transform="translate(-1368.76 -292.24)"/><path class="cls-1" d="M1464.58,311.77a65.77,65.77,0,0,0-19.21,40.61l-.08.9h-19.18l1.23-1.6a11.44,11.44,0,0,0,2.14-4.57l6.19-28.84-4.48-1.79a13.42,13.42,0,0,1-8.18-9.8l-.23-1.16,1.17,0a6.62,6.62,0,0,0-.24-13.24H1388.1a6.62,6.62,0,0,0-.24,13.24l1.18,0-.24,1.16a13.4,13.4,0,0,1-8.17,9.8l-4.48,1.79,6.18,28.84a11.6,11.6,0,0,0,2.15,4.57l1.22,1.6h-16.94v68.31l26.34,26.34h129.34V353.28h-20.69l1.66-1.7a66.27,66.27,0,0,0,19-46.62V292.24h-12.72A66.27,66.27,0,0,0,1464.58,311.77Zm-4.08,9.46a65.15,65.15,0,0,1,6.27-7.28c.65-.66,1.36-1.33,2.15-2.05l1.47-1.33.2,2a9.13,9.13,0,0,0,8.07,8.18V317.6a6.09,6.09,0,1,1,7.09-6c0,.9.07,2,.17,3.27.41,5.38,1,12.76-4.81,18.53l-11.46,11.46.63-3.21a49.73,49.73,0,0,0,.75-9.7,9.18,9.18,0,0,0-9.17-9.18l-.17,0-.33,0-2.12.11Zm-12.36,37.68a63.39,63.39,0,0,1,4-22.26l.74-2,1.06,1.83a9.22,9.22,0,0,0,6.91,4.56v-3.11a6.09,6.09,0,1,1,7.09-6c0,5.11,0,14.62-7.18,21.8l-10.36,10.35-2.27-2.27Zm-1.54,5.73,5.45,5.45-21.63,21.62-7.71,3.86v-7ZM1432,320.76l-5.51,25.7a8.68,8.68,0,0,1-8.44,6.82h-4.59l.88-1.5a9.09,9.09,0,0,0,1.27-3.93l1.93-27.09Zm-34.59,0h17l-1.92,26.87a6.11,6.11,0,0,1-6.08,5.65h-1a6.11,6.11,0,0,1-6.07-5.65h0Zm-9.29-18.34a3.55,3.55,0,0,1,0-7.09h35.61a3.55,3.55,0,0,1,0,7.09ZM1387,316a16.32,16.32,0,0,0,5-9.59l.12-.86h27.55l.12.86a16.25,16.25,0,0,0,5,9.59l1.82,1.73h-41.45Zm-1.66,30.51-5.51-25.7h14.46l1.93,27.09a9.11,9.11,0,0,0,1.26,3.93l.88,1.5h-4.59A8.66,8.66,0,0,1,1385.35,346.46Zm8.84,96.2L1374,422.5h20.16Zm127.17-86.29v88.47H1397.28V419.41h-25.44v-63h73.28l0,1.5c0,.35,0,.7,0,1v2.91l-25.44,25.43v13.31l12.64-6.32,22.61-22.61h2.9a65.79,65.79,0,0,0,42.18-15l.28-.23ZM1507.64,338a6.1,6.1,0,0,1-6-5.08h-3.11a9.18,9.18,0,0,0,9.12,8.17l.17,0,.33,0,2.12-.11-1.26,1.71a64.61,64.61,0,0,1-6.27,7.27,63.15,63.15,0,0,1-45,18.62h-2.9l-2.27-2.27L1485.84,333c7.18-7.18,16.69-7.18,21.8-7.18a6.09,6.09,0,1,1,0,12.17ZM1521.36,305a63.49,63.49,0,0,1-4,22.27l-.74,2-1.06-1.83a9.2,9.2,0,0,0-7.91-4.62,49.28,49.28,0,0,0-9.71.76l-3.21.62,26.64-26.63Zm-32.55,20.73.28-2.78a46.7,46.7,0,0,0-.09-8.28l0-.28c-.07-1-.14-2-.14-2.76a9.14,9.14,0,0,0-4.95-8.09l-1.75-.92,1.77-.86a62.93,62.93,0,0,1,27.81-6.39h7.45Z" transform="translate(-1368.76 -292.24)"/></svg>